<mxfile host="app.diagrams.net" modified="2023-07-01T11:13:43.664Z" agent="Mozilla/5.0 (Windows NT 10.0; Win64; x64) AppleWebKit/537.36 (KHTML, like Gecko) Chrome/114.0.0.0 Safari/537.36" version="21.3.8" etag="DmmZ0QElJBz2SmWBBCzK" type="github">
  <diagram name="Page-1" id="kjcDPbfSrkC4Z7wHgm6a">
    <mxGraphModel>
      <root>
        <mxCell id="0" />
        <mxCell id="1" parent="0" />
      </root>
    </mxGraphModel>
  </diagram>
</mxfile>
